# xmcd
#
# Track frame offsets: 
#        150
#        14965
#        31640
#        44565
#        56322
#        68975
#        87235
#        99540
#        114502
#        129145
#        142497
#        154605
#        168725
#
# Disc length: 2446 seconds
#
# Revision: 0
# Processed by: cddbd v1.5.1PL2 Copyright (c) Steve Scherf et al.
# Submitted via: ExactAudioCopy v0.95b2
#
DISCID=b3098c0d
DTITLE=Τόλης Βοσκόπουλος - Δεν Θέλω Να Θυμάμαι
DYEAR=1982
DGENRE=Folk
TTITLE0=Δεν Θέλω Να Θυμάμαι
TTITLE1=Έγινε Κι Αυτό
TTITLE2=Ξημέρωμα Σάββατο
TTITLE3=Κι Έβαλα Τα Κλάματα
TTITLE4=Ποιος Είμαι Εγώ
TTITLE5=Εχθές Μου Τηλεφώνησες
TTITLE6=Εσύ Που Ήρθες
TTITLE7=Μαύρα Μάτια
TTITLE8=Χθες Ακόμα
TTITLE9=Μάτια Μου Θαλασσινά
TTITLE10=Άρχισε Να Βρέχει
TTITLE11=Τα Όνειρά Μου
TTITLE12=Δεν Θέλω Να Θυμάμαι (ορχηστρικό)
EXTD=
EXTT0=
EXTT1=
EXTT2=
EXTT3=
EXTT4=
EXTT5=
EXTT6=
EXTT7=
EXTT8=
EXTT9=
EXTT10=
EXTT11=
EXTT12=
PLAYORDER=
